<svg xmlns="http://www.w3.org/2000/svg" viewBox="0 0 357.06 78.34"><g id="ең–еұӨ_2" data-name="ең–еұӨ 2"><g id="ең–еұӨ_1-2" data-name="ең–еұӨ 1"><path d="M159.47,14H144.23a1,1,0,0,0-.7,1.71L167,39.18l21.35,21.35a13,13,0,0,0,9.19,3.81h15.24a1,1,0,0,0,.71-1.71L190,39.18,168.66,17.81A13,13,0,0,0,159.47,14Z"/><path d="M235.6,64.34h32.17A13,13,0,0,0,277,60.53l21.38-21.37,20.45-20.45a4,4,0,0,1,2.83-1.17h13.55a13,13,0,0,0,9-3.67L356.75,1.72A1,1,0,0,0,356.06,0H340.62a13,13,0,0,0-9.05,3.66l-9.5,9.22A4,4,0,0,1,319.28,14H305.84a13,13,0,0,0-9.19,3.81L275.3,39.16l-5.23,5.23a26,26,0,0,1-36.77,0l-5.23-5.23L206.72,17.81A13,13,0,0,0,197.53,14H182.29a1,1,0,0,0-.71,1.71L205,39.16,226.4,60.53A13,13,0,0,0,235.6,64.34Z"/><path d="M121.46,14H89.29a13,13,0,0,0-9.19,3.81L58.72,39.18,38.27,59.63a4,4,0,0,1-2.82,1.17H21.89a13,13,0,0,0-9,3.67L.31,76.62A1,1,0,0,0,1,78.34H16.44a13,13,0,0,0,9-3.67L35,65.46a4,4,0,0,1,2.78-1.13H51.22a13,13,0,0,0,9.2-3.81L81.76,39.18,87,34a26,26,0,0,1,36.77,0L129,39.18l21.35,21.35a13,13,0,0,0,9.19,3.81h15.24a1,1,0,0,0,.71-1.71L152,39.18,130.66,17.81A13,13,0,0,0,121.46,14Z"/></g></g></svg>