<?xml version="1.0" encoding="utf-8"?>
<!-- Generator: Adobe Illustrator 24.3.0, SVG Export Plug-In . SVG Version: 6.00 Build 0)  -->
<svg version="1.1" id="圖層_1" xmlns="http://www.w3.org/2000/svg" xmlns:xlink="http://www.w3.org/1999/xlink" x="0px" y="0px"
	 viewBox="0 0 357.1 357.1" style="enable-background:new 0 0 357.1 357.1;" xml:space="preserve">
<style type="text/css">
	.st0{fill:#2A1D11;}
	.st1{fill:#FFFFFF;}
</style>
<rect y="0" class="st0" width="357.1" height="357.1"/>
<g id="圖層_2_1_">
	<g id="圖層_1-2">
		<path class="st1" d="M160.6,157.1h-14.4c-0.5,0-0.9,0.4-0.9,0.9c0,0.2,0.1,0.5,0.3,0.7l22.1,22.1l20.1,20.1
			c2.3,2.3,5.4,3.6,8.7,3.6h14.4c0.5,0,0.9-0.4,0.9-0.9l0,0c0-0.3-0.1-0.5-0.3-0.7l-22.1-22.1l-20.1-20.1
			C166.9,158.3,163.8,157.1,160.6,157.1z"/>
		<path class="st1" d="M232.3,204.5h30.3c3.3,0,6.4-1.3,8.7-3.6l20.1-20.1l19.3-19.3c0.7-0.7,1.7-1.1,2.7-1.1h12.8
			c3.2,0,6.2-1.3,8.5-3.5l11.8-11.4c0.4-0.4,0.4-1,0-1.3c-0.2-0.2-0.4-0.3-0.7-0.3h-14.6c-3.2,0-6.2,1.2-8.5,3.4l-9,8.7
			c-0.7,0.7-1.6,1.1-2.6,1.1h-12.6c-3.2,0-6.4,1.3-8.7,3.6l-20.1,20.1l-4.9,4.9c-9.6,9.6-25.1,9.6-34.7,0l0,0l-4.9-4.9l-20.1-20.1
			c-2.3-2.3-5.4-3.6-8.7-3.6H182c-0.5,0-0.9,0.4-0.9,0.9l0,0c0,0.3,0.1,0.5,0.3,0.7l22.1,22.1l20.2,20.1
			C226,203.2,229.1,204.5,232.3,204.5z"/>
		<path class="st1" d="M124.7,157.1H94.4c-3.2,0-6.4,1.3-8.7,3.6l-20.2,20.1l-19.3,19.3c-0.7,0.7-1.7,1.1-2.7,1.1H30.9
			c-3.2,0-6.2,1.3-8.5,3.5l-11.9,11.4c-0.4,0.4-0.4,1,0,1.3l0,0c0.2,0.2,0.4,0.3,0.7,0.3h14.5c3.2,0,6.2-1.3,8.5-3.5l9-8.7
			c0.7-0.7,1.6-1.1,2.6-1.1h12.7c3.3,0,6.4-1.3,8.7-3.6l20.1-20.1l4.9-4.9c9.6-9.6,25.1-9.6,34.7,0l0,0l4.9,4.9l20.2,20.1
			c2.3,2.3,5.4,3.6,8.7,3.6H175c0.5,0,0.9-0.4,0.9-0.9l0,0c0-0.3-0.1-0.5-0.3-0.7l-22.1-22.1l-20.1-20.1
			C131.1,158.3,128,157,124.7,157.1z"/>
	</g>
</g>
</svg>
